<svg xmlns="http://www.w3.org/2000/svg" width="240" height="220" viewBox="295 135 245 220" fill="none">
  <title>Android Jetpack Icon</title>

  <defs>
    <mask id="c" width="64" height="108" x="326" y="202" maskUnits="userSpaceOnUse" style="mask-type:alpha">
      <path fill="#4285F4" d="M326.503 230.735c0-21.577 23.225-35.178 42.044-24.62a28.232 28.232 0 0 1 14.321 22.287l6.203 74.802a6.089 6.089 0 0 1-6.068 6.592h-50.411a6.089 6.089 0 0 1-6.089-6.088v-72.973Z"/>
    </mask>
    <mask id="d" width="64" height="108" x="463" y="202" maskUnits="userSpaceOnUse" style="mask-type:alpha">
      <path fill="#4285F4" d="M526.501 230.735c0-21.577-23.226-35.178-42.044-24.62a28.23 28.23 0 0 0-14.321 22.287l-6.203 74.802a6.088 6.088 0 0 0 6.068 6.592h50.411a6.089 6.089 0 0 0 6.089-6.089v-72.972Z"/>
    </mask>
  </defs>

  <!-- Left arm -->
  <g mask="url(#c)">
    <path fill="#4285F4" d="M326.503 230.735c0-21.577 23.225-35.178 42.044-24.62a28.232 28.232 0 0 1 14.321 22.287l6.203 74.802a6.089 6.089 0 0 1-6.068 6.592h-50.411a6.089 6.089 0 0 1-6.089-6.088v-72.973Z"/>
  </g>

  <!-- Right arm -->
  <g mask="url(#d)">
    <path fill="#4285F4" d="M526.501 230.735c0-21.577-23.226-35.178-42.044-24.62a28.23 28.23 0 0 0-14.321 22.287l-6.203 74.802a6.088 6.088 0 0 0 6.068 6.592h50.411a6.089 6.089 0 0 0 6.089-6.089v-72.972Z"/>
  </g>

  <!-- White face highlight bar -->
  <path fill="#fff" d="M362.076 228.463s25.091 16.925 64.532 16.925c39.441 0 64.532-16.925 64.532-16.925v-13.634l-17.347-18.169-47.185 17.441-47.185-17.441-17.347 18.169v13.634Z"/>

  <!-- Green head (with antennas) -->
  <path fill="#34A853" d="M490.823 212.46a63.86 63.86 0 0 0-1.113-5.595 64.672 64.672 0 0 0-5.476-14.522 65.036 65.036 0 0 0-15.24-19.225 65.201 65.201 0 0 0-8.081-5.948c.025-.041.047-.085.072-.126 1.305-2.253 2.612-4.503 3.917-6.755l3.828-6.598c.917-1.578 1.834-3.16 2.747-4.739a5.946 5.946 0 0 0 .334-5.293 5.881 5.881 0 0 0-2.435-2.794 6 6 0 0 0-3.649-.804 5.944 5.944 0 0 0-4.53 2.927c-.917 1.579-1.834 3.16-2.748 4.739l-3.828 6.597c-1.304 2.253-2.612 4.503-3.916 6.755-.142.246-.287.492-.429.741-.198-.079-.394-.158-.592-.233a64.889 64.889 0 0 0-23.823-4.238 64.902 64.902 0 0 0-20.722 3.595c-.753.261-1.496.539-2.234.828-.132-.23-.267-.46-.4-.69-1.304-2.252-2.612-4.502-3.916-6.755l-3.828-6.597c-.917-1.579-1.834-3.16-2.748-4.739a5.935 5.935 0 0 0-5.649-2.936 5.916 5.916 0 0 0-2.53.813 5.915 5.915 0 0 0-2.703 3.579 5.946 5.946 0 0 0 .602 4.509l2.747 4.738 3.828 6.598c1.305 2.252 2.612 4.502 3.916 6.755l.032.056a65.396 65.396 0 0 0-7.499 5.429 65.355 65.355 0 0 0-4.086 3.734 65.368 65.368 0 0 0-7.127 8.39 64.475 64.475 0 0 0-4.72 7.694 64.676 64.676 0 0 0-6.462 19.329c-.044.262-.085.526-.126.788a64.82 64.82 0 0 0-.372 2.845h129.321a64.82 64.82 0 0 0-.372-2.845l.01-.007Z"/>

  <!-- Eyes -->
  <path fill="#202124" d="M460.157 197.439c2.588-1.721 2.964-5.704.84-8.895-2.124-3.192-5.943-4.383-8.53-2.662-2.587 1.722-2.963 5.705-.84 8.896 2.124 3.192 5.943 4.383 8.53 2.661Z"/>
  <path fill="#202124" d="M401.534 194.773c2.124-3.192 1.748-7.174-.84-8.896-2.587-1.722-6.406-.53-8.53 2.661-2.123 3.192-1.747 7.175.84 8.896 2.587 1.722 6.406.53 8.53-2.661Z"/>

  <!-- Green body -->
  <path fill="#34A853" d="M362.076 220.364H491.14v51.361c0 35.64-28.892 64.531-64.532 64.531s-64.532-28.891-64.532-64.531v-51.361Z"/>

  <!-- Left lime connector diamond -->
  <path fill="#C6FF00" d="M344.313 302.417c6.913-6.913 18.121-6.913 25.034 0s6.913 18.122 0 25.035l-7.041 7.041a7.743 7.743 0 0 1-10.952 0l-7.041-7.041c-6.913-6.913-6.913-18.122 0-25.035Z"/>

  <!-- Right lime connector diamond -->
  <path fill="#C6FF00" d="M507.877 302.417c-6.913-6.913-18.121-6.913-25.034 0s-6.913 18.122 0 25.035l7.041 7.041a7.744 7.744 0 0 0 10.953 0l7.04-7.041c6.913-6.913 6.913-18.122 0-25.035Z"/>
</svg>
